<?xml version="1.0" encoding="utf-8"?>
<!-- Generator: Adobe Illustrator 24.0.0, SVG Export Plug-In . SVG Version: 6.00 Build 0)  -->
<svg version="1.1" id="Layer_1" xmlns="http://www.w3.org/2000/svg" xmlns:xlink="http://www.w3.org/1999/xlink" x="0px" y="0px"
	 viewBox="0 0 1920 1080" style="enable-background:new 0 0 1920 1080;" xml:space="preserve">
<style type="text/css">
	.st0{fill:#8972A9;}
	.st1{fill:#1F3C73;}
	.st2{fill:#FFFFFF;}
</style>
<path class="st0" d="M1841,926.4c0,39.3-31.9,71.2-71.2,71.2H116.7c48-15.9,133.5-43.2,133.5-164.2V227.5
	c0-39.3,31.9-71.2,71.2-71.2h1448.5c39.3,0,71.2,31.9,71.2,71.2V926.4z"/>
<path class="st1" d="M1766.3,851.6c0,39.3-31.9,71.2-71.2,71.2H42c48-15.9,133.5-43.2,133.5-164.2V152.7c0-39.3,31.9-71.2,71.2-71.2
	h1448.5c39.3,0,71.2,31.9,71.2,71.2V851.6z"/>
<g>
	<g>
		<path class="st0" d="M383,436.3c0,4.3,0.3,8.3,1,11.8c0.7,3.6,2,6.5,3.9,9c1.9,2.4,4.5,4.3,7.7,5.7c3.2,1.4,7.2,2.1,12.1,2.1
			c5.7,0,10.9-1.9,15.5-5.6c4.6-3.7,6.9-9.5,6.9-17.3c0-4.2-0.6-7.8-1.7-10.8c-1.1-3-3-5.8-5.6-8.2c-2.6-2.4-6-4.6-10.3-6.6
			c-4.3-2-9.5-4-15.7-6.1c-8.3-2.8-15.5-5.8-21.6-9.1c-6.1-3.3-11.1-7.2-15.2-11.6c-4.1-4.4-7.1-9.5-9-15.3
			c-1.9-5.8-2.9-12.5-2.9-20.2c0-18.4,5.1-32.1,15.3-41.1c10.2-9,24.3-13.5,42.1-13.5c8.3,0,16,0.9,23,2.7s13.1,4.8,18.2,8.8
			c5.1,4.1,9.1,9.3,12,15.6c2.9,6.3,4.3,13.9,4.3,22.8v5.2h-35.9c0-8.8-1.6-15.6-4.7-20.4c-3.1-4.8-8.3-7.2-15.6-7.2
			c-4.2,0-7.6,0.6-10.4,1.8c-2.8,1.2-5,2.8-6.6,4.8c-1.6,2-2.8,4.3-3.4,6.9c-0.6,2.6-0.9,5.3-0.9,8.1c0,5.7,1.2,10.5,3.6,14.4
			c2.4,3.9,7.6,7.5,15.6,10.8l28.9,12.5c7.1,3.1,12.9,6.4,17.4,9.8c4.5,3.4,8.1,7,10.8,10.9c2.7,3.9,4.6,8.2,5.6,12.9
			s1.6,9.9,1.6,15.6c0,19.6-5.7,33.9-17,42.8c-11.4,8.9-27.2,13.4-47.5,13.4c-21.2,0-36.3-4.6-45.4-13.8
			c-9.1-9.2-13.7-22.4-13.7-39.5v-7.5H383V436.3z"/>
		<path class="st0" d="M481.4,303.1h37.5v155h66.3v30.7H481.4V303.1z"/>
		<path class="st0" d="M699.1,333.8h-66.3v43.7h62.4v30.7h-62.4v49.9h68.9v30.7H595.3V303.1h103.8V333.8z"/>
		<path class="st0" d="M817.8,333.8h-66.3v43.7h62.4v30.7h-62.4v49.9h68.9v30.7H714V303.1h103.8V333.8z"/>
		<path class="st0" d="M898.1,303.1c9.5,0,17.6,1.6,24.1,4.8c6.5,3.2,11.7,7.4,15.7,12.6c4,5.2,6.8,11.1,8.6,17.8
			c1.7,6.7,2.6,13.5,2.6,20.4c0,9.5-1.4,17.9-4.3,25c-2.9,7.1-6.9,12.9-12,17.4c-5.1,4.5-11.3,7.9-18.6,10.1
			c-7.3,2.3-15.3,3.4-24.2,3.4h-20v74.1h-37.5V303.1H898.1z M886.7,387.1c7.5,0,13.5-2.3,18.1-6.8c4.6-4.5,6.9-11.5,6.9-21.1
			c0-9.4-2-16.5-6-21.3c-4-4.9-10.7-7.3-20-7.3H870v56.5H886.7z"/>
	</g>
</g>
<g>
	<g>
		<path class="st0" d="M1007.6,388.4c0-8.1,1.3-15,3.9-20.4c2.6-5.5,6.1-9.9,10.5-13.3c4.4-3.4,9.6-5.8,15.6-7.3
			c6-1.5,12.4-2.2,19.1-2.2c10.8,0,19.4,1,26,3.1c6.6,2.1,11.7,5,15.3,8.8c3.6,3.8,6.1,8.4,7.4,13.7c1.3,5.3,2,11.1,2,17.3v73.6
			c0,6.6,0.3,11.7,0.9,15.3c0.6,3.6,1.8,7.5,3.5,11.7h-34.3c-1.2-2.3-2.1-4.6-2.7-7.2c-0.6-2.5-1.2-5-1.7-7.4h-0.5
			c-4.2,7.3-9,12-14.4,14.2c-5.5,2.2-12.5,3.3-21.2,3.3c-6.2,0-11.5-1.1-15.9-3.3c-4.3-2.2-7.8-5.2-10.4-9
			c-2.6-3.8-4.5-8.1-5.7-12.9c-1.2-4.8-1.8-9.5-1.8-14.2c0-6.6,0.7-12.3,2.1-17c1.4-4.8,3.5-8.8,6.4-12.2c2.9-3.4,6.5-6.2,10.9-8.5
			c4.4-2.3,9.8-4.2,16-6l20.3-5.5c5.4-1.4,9.1-3.3,11.2-5.7c2.1-2.4,3.1-6,3.1-10.7c0-5.4-1.3-9.6-3.8-12.6c-2.5-3-6.8-4.6-12.9-4.6
			c-5.6,0-9.7,1.6-12.5,4.9c-2.8,3.3-4.2,7.7-4.2,13.3v3.9h-32.3V388.4z M1065.3,423.4c-2.8,1.1-5.3,2-7.5,2.5
			c-7.3,1.6-12.5,4.2-15.6,7.8c-3.1,3.6-4.7,8.6-4.7,14.8c0,5.4,1,10,3.1,13.8c2.1,3.8,5.5,5.7,10.4,5.7c2.4,0,4.9-0.4,7.5-1.2
			c2.6-0.8,5-2,7.2-3.8c2.2-1.7,3.9-4,5.3-6.8c1.4-2.8,2.1-6.1,2.1-9.9v-27.6C1070.7,420.8,1068.1,422.3,1065.3,423.4z"/>
		<path class="st0" d="M1160.8,348.9v16.4h0.5c3.8-6.9,8.8-12,14.8-15.2c6.1-3.2,13-4.8,20.8-4.8c11.4,0,20.2,3.1,26.4,9.4
			c6.2,6.2,9.2,16.4,9.2,30.4v103.8h-35.9v-96.5c0-7.3-1.2-12.4-3.6-15.2c-2.4-2.9-6.3-4.3-11.7-4.3c-12.7,0-19,7.7-19,23.2v92.9
			h-35.9v-140H1160.8z"/>
		<path class="st0" d="M1321.3,474c-4,6.6-8.5,11.2-13.4,13.8c-4.9,2.6-11.1,3.9-18.3,3.9c-14.7,0-25.6-5.6-32.5-16.9
			c-6.9-11.3-10.4-29.9-10.4-55.9c0-26,3.5-44.8,10.4-56.3c6.9-11.5,17.8-17.3,32.5-17.3c6.8,0,12.5,1.4,17.3,4.2
			c4.8,2.8,9.1,6.9,12.9,12.5h0.5v-58.8h35.9v185.7h-34.3V474H1321.3z M1286.1,453.3c2.3,7.7,7.4,11.6,15.2,11.6
			c8,0,13.1-3.9,15.5-11.6c2.3-7.7,3.5-19.2,3.5-34.5c0-15.3-1.2-26.8-3.5-34.5c-2.3-7.7-7.5-11.6-15.5-11.6
			c-7.8,0-12.9,3.9-15.2,11.6c-2.3,7.7-3.5,19.2-3.5,34.5C1282.5,434.1,1283.7,445.6,1286.1,453.3z"/>
	</g>
</g>
<g>
	<path class="st2" d="M422.4,535.6c8.3,0,16,0.9,23.1,2.6c7.1,1.7,13.2,4.5,18.3,8.5c5.1,4,9.1,9.3,11.9,15.9
		c2.8,6.6,4.3,14.7,4.3,24.4c0,11-2.6,20.4-7.7,28.2c-5.1,7.8-12.8,13.2-23,16v0.6c11.3,1.5,20.3,6.3,26.9,14.5
		c6.6,8.1,9.9,19,9.9,32.6c0,7.9-1,15.5-3.1,22.7c-2.1,7.2-5.6,13.5-10.6,18.9c-5,5.4-11.5,9.7-19.6,12.9c-8,3.2-18,4.8-29.9,4.8
		H354V535.6H422.4z M406.5,618.6c11.3,0,19.6-2,24.8-6.1c5.2-4.1,7.8-10.9,7.8-20.6c0-9.6-2.4-16.4-7.1-20.4c-4.7-4-12.2-6-22.4-6
		h-14.7v53H406.5z M410.7,707.9c9.8,0,17.8-2.2,23.8-6.5c6-4.3,9.1-12.4,9.1-24.1c0-5.9-0.8-10.7-2.4-14.6c-1.6-3.9-3.8-7-6.5-9.4
		c-2.7-2.4-6-4-9.8-5c-3.8-0.9-7.9-1.4-12.5-1.4h-17.6v60.9H410.7z"/>
	<path class="st2" d="M587.1,535.6c17,0,30.2,4.3,39.7,12.9c9.4,8.6,14.2,21.7,14.2,39.3c0,13.6-2.7,24.7-8.2,33.3
		c-5.5,8.6-14,14.1-25.5,16.6v0.6c10.2,1.5,17.7,4.8,22.4,9.9c4.7,5.1,7.7,13.3,8.8,24.7c0.4,3.8,0.7,7.9,0.9,12.3
		c0.2,4.4,0.4,9.4,0.6,14.9c0.4,10.8,0.9,19,1.7,24.7c1.1,5.7,3.6,9.5,7.4,11.6v1.7h-44.2c-2.1-2.8-3.4-6.1-4-9.8
		c-0.6-3.7-0.9-7.5-1.1-11.5l-1.1-38.8c-0.4-7.9-2.4-14.2-6-18.7c-3.6-4.5-9.6-6.8-18.1-6.8h-21.8V738h-40.8V535.6H587.1z
		 M569.5,624c9.8,0,17.4-2.3,22.7-6.9c5.3-4.6,7.9-12.4,7.9-23.4c0-18.7-9.5-28.1-28.3-28.1h-19.3V624H569.5z"/>
	<path class="st2" d="M782.4,569h-72.3v47.6h68v33.5h-68v54.4h75.1V738H669.3V535.6h113.1V569z"/>
	<path class="st2" d="M895.5,535.6L949.1,738h-42.5l-9.4-42.8h-53.9L834,738h-42.5L845,535.6H895.5z M890.1,661.7l-19.6-91H870
		l-19.6,91H890.1z"/>
	<path class="st2" d="M1066.4,569h-44.2v169h-40.8V569h-44.2v-33.5h129.3V569z"/>
	<path class="st2" d="M1124.8,535.6V613h47.6v-77.4h40.8V738h-40.8v-89.9h-47.6V738H1084V535.6H1124.8z"/>
	<path class="st2" d="M1243.6,535.6h40.8V738h-40.8V535.6z"/>
	<path class="st2" d="M1411.1,674.2h0.6V535.6h37.4V738h-46.5l-49.9-141.7h-0.6V738h-37.4V535.6h47.1L1411.1,674.2z"/>
	<path class="st2" d="M1566,584c-0.9-4-2.2-7.6-4.1-10.9c-1.9-3.3-4.3-6-7.2-8.2c-2.9-2.2-6.5-3.3-10.6-3.3
		c-9.8,0-16.9,5.5-21.3,16.4c-4.3,11-6.5,29.1-6.5,54.4c0,12.1,0.4,23.1,1.1,32.9c0.8,9.8,2.1,18.2,4.1,25.1
		c2,6.9,4.8,12.2,8.5,15.9c3.7,3.7,8.5,5.5,14.3,5.5c2.5,0,5.1-0.7,8.1-2c2.9-1.3,5.7-3.3,8.2-6c2.6-2.6,4.7-6,6.4-10.1
		c1.7-4.1,2.6-8.8,2.6-14.3v-20.7h-26.9v-30h66.1V738h-30v-18.7h-0.6c-4.9,7.9-10.8,13.6-17.7,16.9c-6.9,3.3-15.2,5-24.8,5
		c-12.5,0-22.6-2.2-30.5-6.5c-7.8-4.3-14-11.1-18.4-20.1c-4.4-9.1-7.4-20.3-8.9-33.6c-1.5-13.3-2.3-28.8-2.3-46.3
		c0-17,1.1-31.9,3.3-44.8c2.2-12.9,5.9-23.6,11.2-32.2c5.3-8.6,12.3-15.1,21-19.4c8.7-4.3,19.6-6.5,32.6-6.5
		c22.3,0,38.4,5.5,48.2,16.6c9.8,11.1,14.7,26.9,14.7,47.5h-39.1C1567.3,591.9,1566.9,588,1566,584z"/>
</g>
</svg>
