<svg xmlns="http://www.w3.org/2000/svg" viewBox="0 0 1776.58 1043.25"><defs><style>.cls-1{fill:#9070ae;}.cls-2{fill:#143979;}.cls-3{fill:none;stroke:#143979;stroke-miterlimit:10;stroke-width:21.59px;}.cls-4{fill:#fff;}</style></defs><g id="Layer_2" data-name="Layer 2"><g id="Layer_2-2" data-name="Layer 2"><path class="cls-1" d="M1776.58,976.6c0,36.81-28.49,66.65-63.63,66.65H66.81c42.94-14.87,119.3-40.42,119.3-153.73V322.1c0-36.81,28.47-66.64,63.61-66.64H1713c35.14,0,63.63,29.83,63.63,66.64Z"/><path class="cls-2" d="M1541.33,906.62c0,36.81-28.48,66.66-63.62,66.66H0c43-14.88,119.3-40.43,119.3-153.73V252.13c0-36.82,28.48-66.66,63.63-66.66H1477.71c35.14,0,63.62,29.84,63.62,66.66Z"/><path class="cls-3" d="M1485,135.28a93.35,93.35,0,0,1,93.36,93.35"/><path class="cls-3" d="M1485,73a155.59,155.59,0,0,1,155.6,155.6"/><path class="cls-3" d="M1485,10.79c120.31,0,217.84,97.54,217.84,217.84"/><path class="cls-1" d="M304.87,517.66a59.94,59.94,0,0,0,.93,11.09,19.62,19.62,0,0,0,3.49,8.4,17.19,17.19,0,0,0,6.86,5.36,26.19,26.19,0,0,0,10.81,2,20.78,20.78,0,0,0,13.84-5.24Q346.95,534,347,523a30.49,30.49,0,0,0-1.51-10.11,20.09,20.09,0,0,0-5-7.67,35.34,35.34,0,0,0-9.19-6.22,130.21,130.21,0,0,0-14.07-5.72,117.56,117.56,0,0,1-19.3-8.53,52.16,52.16,0,0,1-13.6-10.84,39.24,39.24,0,0,1-8-14.37,63.36,63.36,0,0,1-2.56-18.88q0-25.81,13.72-38.49t37.68-12.67a78.17,78.17,0,0,1,20.58,2.56A42.28,42.28,0,0,1,362,400.36,38.59,38.59,0,0,1,372.66,415q3.82,8.89,3.83,21.31v4.87H344.4q0-12.42-4.18-19.12t-14-6.7A22.43,22.43,0,0,0,317,417a15.92,15.92,0,0,0-5.93,4.51,15.71,15.71,0,0,0-3,6.46,34.19,34.19,0,0,0-.82,7.55,26.06,26.06,0,0,0,3.26,13.52q3.26,5.48,13.95,10.11l25.81,11.7A78.17,78.17,0,0,1,365.8,480a44,44,0,0,1,9.65,10.24,35,35,0,0,1,5,12.05,70.7,70.7,0,0,1,1.39,14.62q0,27.54-15.23,40.07t-42.44,12.55q-28.38,0-40.58-12.91t-12.21-37v-7.06h33.49Z"/><path class="cls-1" d="M392.77,392.93h33.48V538.12h59.31v28.75H392.77Z"/><path class="cls-1" d="M587.64,421.67h-59.3V462.6h55.82v28.75H528.34v46.77H590v28.75H494.86V392.93h92.78Z"/><path class="cls-1" d="M693.92,421.67h-59.3V462.6h55.81v28.75H634.62v46.77h61.62v28.75H601.13V392.93h92.79Z"/><path class="cls-1" d="M766,392.93q12.79,0,21.51,4.5a39.63,39.63,0,0,1,14.07,11.82,47.09,47.09,0,0,1,7.68,16.69,79.67,79.67,0,0,1,2.32,19.12q0,13.41-3.83,23.39a42.56,42.56,0,0,1-10.7,16.32,44.06,44.06,0,0,1-16.63,9.5,69.58,69.58,0,0,1-21.63,3.17h-17.9v69.43H707.4V392.93Zm-10.23,78.69q10,0,16.16-6.34t6.16-19.73q0-13.16-5.34-20t-17.91-6.82h-14v52.87Z"/><path class="cls-1" d="M863.22,472.84q0-11.46,3.49-19.13a33,33,0,0,1,9.41-12.42,36.83,36.83,0,0,1,14-6.83,68.63,68.63,0,0,1,17.09-2.07q14.42,0,23.25,2.93t13.73,8.28a28.27,28.27,0,0,1,6.62,12.79,70.46,70.46,0,0,1,1.75,16.2v68.95a96.18,96.18,0,0,0,.81,14.37,51.69,51.69,0,0,0,3.14,11h-30.7a28.25,28.25,0,0,1-2.44-6.7q-.83-3.52-1.51-6.94h-.47q-5.58,10.23-12.9,13.28c-4.88,2-11.21,3-19,3a30.37,30.37,0,0,1-14.19-3,24.28,24.28,0,0,1-9.3-8.41A38.36,38.36,0,0,1,860.89,546a56.29,56.29,0,0,1-1.63-13.27,59.71,59.71,0,0,1,1.87-16,29.83,29.83,0,0,1,15.46-19.37,74.71,74.71,0,0,1,14.3-5.6L909,486.72q7.2-2,10-5.36t2.79-10q0-7.55-3.37-11.81t-11.51-4.27q-7.46,0-11.16,4.63t-3.73,12.43V476H863.22Zm51.62,32.76a43.76,43.76,0,0,1-6.74,2.32q-9.76,2.19-14,7.3T890,529.11A27.63,27.63,0,0,0,892.75,542q2.79,5.37,9.3,5.36a22.24,22.24,0,0,0,6.75-1.1A18.25,18.25,0,0,0,920,536.42a21.28,21.28,0,0,0,1.86-9.26V501.34A28.25,28.25,0,0,1,914.84,505.6Z"/><path class="cls-1" d="M1000.42,435.81v15.34h.46q5.11-9.73,13.26-14.25a37.77,37.77,0,0,1,18.6-4.51q15.35,0,23.6,8.77t8.26,28.51v97.2h-32.09V476.49q0-10.23-3.26-14.25t-10.46-4q-17,0-17,21.68v87H969.72V435.81Z"/><path class="cls-1" d="M1143.9,553q-5.36,9.25-12,12.91t-16.4,3.65q-19.77,0-29.07-15.83t-9.3-52.38q0-36.54,9.3-52.75t29.07-16.2a29.18,29.18,0,0,1,15.47,3.9,37.3,37.3,0,0,1,11.51,11.7h.46V392.93h32.1V566.87h-30.7V553Zm-31.51-19.37q3.13,10.85,13.61,10.84,10.68,0,13.83-10.84t3.14-32.28q0-21.43-3.14-32.28T1126,458.22q-10.47,0-13.61,10.84t-3.14,32.28Q1109.25,522.78,1112.39,533.62Z"/><path class="cls-4" d="M340,610.61A84.75,84.75,0,0,1,360.66,613,41.41,41.41,0,0,1,377,621a36.62,36.62,0,0,1,10.64,14.87q3.81,9.3,3.8,22.83,0,15.39-6.84,26.41t-20.52,15v.53q15.19,2.13,24.07,13.54T397,744.67a79.39,79.39,0,0,1-2.79,21.24,43.73,43.73,0,0,1-9.5,17.65,47.57,47.57,0,0,1-17.48,12.08q-10.78,4.51-26.74,4.51H278.94V610.61Zm-14.19,77.78q15.21,0,22.18-5.71t7-19.25q0-13.53-6.33-19.11t-20-5.57H315.43v49.64Zm3.8,83.62q13.18,0,21.29-6.1T359,743.34a37.36,37.36,0,0,0-2.16-13.67,23.08,23.08,0,0,0-5.82-8.76,20.75,20.75,0,0,0-8.74-4.65,44.28,44.28,0,0,0-11.15-1.32H315.43V772Z"/><path class="cls-4" d="M487.23,610.61q22.81,0,35.48,12.08t12.67,36.77q0,19.11-7.35,31.19t-22.8,15.53v.53q13.68,2.13,20,9.29t7.86,23.1q.51,5.31.76,11.54t.51,13.94q.5,15.13,1.52,23.1,1.51,8,6.58,10.88v1.59H503A20.78,20.78,0,0,1,499.4,791a107.31,107.31,0,0,1-1-10.76l-1-36.37q-.51-11.14-5.32-17.52T475.83,720H456.32v80.17H419.83V610.61Zm-15.71,82.82q13.19,0,20.28-6.5t7.09-21.9q0-26.28-25.34-26.28H456.32v54.68Z"/><path class="cls-4" d="M661.83,641.93H597.21v44.6H658v31.33H597.21v51h67.15v31.32H560.72V610.61H661.83Z"/><path class="cls-4" d="M762.94,610.61l47.89,189.54h-38l-8.36-40.08H716.31L708,800.15h-38l47.89-189.54Zm-4.82,118.13-17.48-85.21h-.51l-17.48,85.21Z"/><path class="cls-4" d="M915.74,641.93H876.21V800.15H839.72V641.93H800.19V610.61H915.74Z"/><path class="cls-4" d="M967.94,610.61v72.47h42.57V610.61H1047V800.15h-36.49V716H967.94v84.15H931.45V610.61Z"/><path class="cls-4" d="M1074.12,610.61h36.49V800.15h-36.49Z"/><path class="cls-4" d="M1223.87,740.42h.51V610.61h33.45V800.15h-41.56l-44.6-132.73h-.5V800.15h-33.45V610.61h42.06Z"/><path class="cls-4" d="M1362.36,656a36.85,36.85,0,0,0-3.67-10.22,24.69,24.69,0,0,0-6.47-7.7,15.06,15.06,0,0,0-9.5-3.05q-13.18,0-19,15.4t-5.83,51q0,17,1,30.79a124.27,124.27,0,0,0,3.67,23.5q2.67,9.69,7.61,14.86a17.07,17.07,0,0,0,20,3.32,24,24,0,0,0,7.34-5.57,30.24,30.24,0,0,0,5.71-9.43,36,36,0,0,0,2.28-13.4V726.09h-24.07V698h59v102.2h-26.86V782.63h-.51q-6.59,11.16-15.84,15.8t-22.17,4.64q-16.72,0-27.24-6.1t-16.47-18.85q-6-12.75-8-31.46a405.84,405.84,0,0,1-2-43.4,266.59,266.59,0,0,1,2.91-42q2.91-18,10-30.13A46.63,46.63,0,0,1,1313.07,613q11.65-6.11,29.14-6.11,29.91,0,43.08,15.53t13.18,44.47h-35A54.34,54.34,0,0,0,1362.36,656Z"/><path class="cls-4" d="M1611.68,950.39,1696,921.17v-.25l-84.31-29v-9.07l94.21,33.37v10l-94.21,33.25Z"/><path class="cls-4" d="M1611.68,840.57h94.21v8.57h-94.21Z"/><path class="cls-4" d="M1611.68,755.43a37.64,37.64,0,0,1,1.45-10.51,25,25,0,0,1,4.42-8.69,21.07,21.07,0,0,1,7.66-5.92,25.6,25.6,0,0,1,11-2.2,27.34,27.34,0,0,1,15.57,4.4q6.6,4.41,8.45,13.1h.26a19.36,19.36,0,0,1,2.44-7.31,15.09,15.09,0,0,1,4.55-4.72,19.45,19.45,0,0,1,6.4-2.64,48.78,48.78,0,0,1,7.85-1.07c1.59-.08,3.52-.17,5.81-.25s4.6-.26,6.93-.51a44.88,44.88,0,0,0,6.59-1.19,12.8,12.8,0,0,0,4.82-2.21v9.45a11.92,11.92,0,0,1-3.23,1.19,28.19,28.19,0,0,1-4,.63c-1.36.13-2.71.24-4,.32s-2.46.17-3.43.25q-5,.26-10,.82a28.55,28.55,0,0,0-8.84,2.39,15.45,15.45,0,0,0-6.27,5.29q-2.37,3.47-2.11,9.51v32.49h41.83v8.57h-94.21Zm44.73.63a22.16,22.16,0,0,0-1.25-7.43,18.4,18.4,0,0,0-3.63-6.17,17.45,17.45,0,0,0-13.46-5.79q-8.71,0-13.72,4.78t-5,14.61v32h37.07Z"/><path class="cls-4" d="M1611.68,625.84h7.66V657.2h86.55v8.56h-86.55V697h-7.66Z"/><path class="cls-4" d="M1611.68,584.53H1670a47.32,47.32,0,0,0,13.92-1.77,23.46,23.46,0,0,0,9.37-5.16,19.76,19.76,0,0,0,5.28-8.31,34.69,34.69,0,0,0,1.64-11.08,35.12,35.12,0,0,0-1.64-11.21,19.82,19.82,0,0,0-5.28-8.31,23.59,23.59,0,0,0-9.37-5.17,48,48,0,0,0-13.92-1.76h-58.32V523.2H1672a48,48,0,0,1,13.79,1.95,30.63,30.63,0,0,1,11.41,6.17,29.32,29.32,0,0,1,7.72,10.83,46.46,46.46,0,0,1,0,32,29.32,29.32,0,0,1-7.72,10.83,30.8,30.8,0,0,1-11.41,6.18,48,48,0,0,1-13.79,1.94h-60.3Z"/><path class="cls-4" d="M1611.68,445l94.21-35.26v9.19l-29.29,10.95V470.8l29.29,10.83v9.07l-94.21-36.15Zm57.26-12.22-48.28,17.38,48.28,18Z"/><path class="cls-4" d="M1611.68,367.78h86.56V317.4h7.65v58.94h-94.21Z"/></g></g></svg>